HIERARCHY
ROOT Hips
{
	OFFSET 0.000000 100.481300 0.000000
	CHANNELS 6 Xposition Yposition Zposition Xrotation Yrotation Zrotation 
	JOINT Spine
	{
		OFFSET -0.279200 12.230698 -2.892100
		CHANNELS 3 Xrotation Yrotation Zrotation
		JOINT Spine1
		{
			OFFSET -0.232667 10.192268 -1.242267
			CHANNELS 3 Xrotation Yrotation Zrotation
			JOINT Spine1_split
			{
				OFFSET -0.232667 10.192268 -1.242267
				CHANNELS 3 Xrotation Yrotation Zrotation
				JOINT Spine2
				{
					OFFSET -0.232667 10.192268 -1.242267
					CHANNELS 3 Xrotation Yrotation Zrotation
					JOINT Neck
					{
						OFFSET -0.418800 17.814194 8.416900
						CHANNELS 3 Xrotation Yrotation Zrotation
						JOINT Head
						{
							OFFSET 0.000000 7.031097 3.806800
							CHANNELS 3 Xrotation Yrotation Zrotation
							JOINT HeadTop_End
							{
								OFFSET 0.000000 24.646606 12.978600
								CHANNELS 3 Xrotation Yrotation Zrotation
								End Site
								{
									OFFSET 0.000000 0.000000 0.000000
								}
							}
						}
					}
					JOINT LeftShoulder
					{
						OFFSET 8.476499 7.247704 -3.868750
						CHANNELS 3 Xrotation Yrotation Zrotation
						JOINT LeftShoulder_split
						{
							OFFSET 8.476499 7.247704 -3.868750
							CHANNELS 3 Xrotation Yrotation Zrotation
							JOINT LeftArm
							{
								OFFSET 9.308998 -2.777710 0.208600
								CHANNELS 3 Xrotation Yrotation Zrotation
								JOINT LeftForeArm
								{
									OFFSET 29.972298 0.000000 0.000000
									CHANNELS 3 Xrotation Yrotation Zrotation
									JOINT LeftHand
									{
										OFFSET 26.026505 0.000000 0.000000
										CHANNELS 3 Xrotation Yrotation Zrotation
										JOINT LeftHandThumb1
										{
											OFFSET 12.240501 -7.147949 9.207150
											CHANNELS 3 Xrotation Yrotation Zrotation
											JOINT LeftHandThumb2
											{
												OFFSET 4.138618 -2.389435 2.389433
												CHANNELS 3 Xrotation Yrotation Zrotation
												JOINT LeftHandThumb3
												{
													OFFSET 2.726913 -1.574387 1.574386
													CHANNELS 3 Xrotation Yrotation Zrotation
													JOINT LeftHandThumb4
													{
														OFFSET 3.941010 -2.275345 2.275342
														CHANNELS 3 Xrotation Yrotation Zrotation
														End Site
														{
															OFFSET 0.000000 0.000000 0.000000
														}
													}
												}
											}
										}
										JOINT LeftHandIndex1
										{
											OFFSET 24.424698 -1.985611 5.953459
											CHANNELS 3 Xrotation Yrotation Zrotation
											JOINT LeftHandIndex2
											{
												OFFSET 6.426697 0.000000 0.000000
												CHANNELS 3 Xrotation Yrotation Zrotation
												JOINT LeftHandIndex3
												{
													OFFSET 5.337898 0.000000 0.000000
													CHANNELS 3 Xrotation Yrotation Zrotation
													JOINT LeftHandIndex4
													{
														OFFSET 4.409401 0.000000 0.000000
														CHANNELS 3 Xrotation Yrotation Zrotation
														End Site
														{
															OFFSET 0.000000 0.000000 0.000000
														}
													}
												}
											}
										}
										JOINT LeftHandMiddle1
										{
											OFFSET 23.810104 0.000000 0.000000
											CHANNELS 3 Xrotation Yrotation Zrotation
											JOINT LeftHandMiddle2
											{
												OFFSET 7.176498 0.000000 0.000000
												CHANNELS 3 Xrotation Yrotation Zrotation
												JOINT LeftHandMiddle3
												{
													OFFSET 6.774902 0.000000 0.000000
													CHANNELS 3 Xrotation Yrotation Zrotation
													JOINT LeftHandMiddle4
													{
														OFFSET 5.403328 0.000000 0.000000
														CHANNELS 3 Xrotation Yrotation Zrotation
														End Site
														{
															OFFSET 0.000000 0.000000 0.000000
														}
													}
												}
											}
										}
										JOINT LeftHandRing1
										{
											OFFSET 22.908401 -0.839279 -6.020567
											CHANNELS 3 Xrotation Yrotation Zrotation
											JOINT LeftHandRing2
											{
												OFFSET 6.337502 0.000000 0.000000
												CHANNELS 3 Xrotation Yrotation Zrotation
												JOINT LeftHandRing3
												{
													OFFSET 5.779297 0.000000 0.000000
													CHANNELS 3 Xrotation Yrotation Zrotation
													JOINT LeftHandRing4
													{
														OFFSET 4.965698 0.000000 0.000000
														CHANNELS 3 Xrotation Yrotation Zrotation
														End Site
														{
															OFFSET 0.000000 0.000000 0.000000
														}
													}
												}
											}
										}
										JOINT LeftHandPinky1
										{
											OFFSET 20.037003 -1.530319 -10.950146
											CHANNELS 3 Xrotation Yrotation Zrotation
											JOINT LeftHandPinky2
											{
												OFFSET 5.254700 0.000000 0.000000
												CHANNELS 3 Xrotation Yrotation Zrotation
												JOINT LeftHandPinky3
												{
													OFFSET 4.810204 0.000000 0.000000
													CHANNELS 3 Xrotation Yrotation Zrotation
													JOINT LeftHandPinky4
													{
														OFFSET 3.647202 0.000000 0.000000
														CHANNELS 3 Xrotation Yrotation Zrotation
														End Site
														{
															OFFSET 0.000000 0.000000 0.000000
														}
													}
												}
											}
										}
									}
								}
							}
						}
					}
					JOINT RightShoulder
					{
						OFFSET -7.570500 7.247704 -3.868750
						CHANNELS 3 Xrotation Yrotation Zrotation
						JOINT RightShoulder_split
						{
							OFFSET -7.570500 7.247704 -3.868750
							CHANNELS 3 Xrotation Yrotation Zrotation
							JOINT RightArm
							{
								OFFSET -9.308998 -2.777710 0.208500
								CHANNELS 3 Xrotation Yrotation Zrotation
								JOINT RightForeArm
								{
									OFFSET -29.972300 0.000000 0.000000
									CHANNELS 3 Xrotation Yrotation Zrotation
									JOINT RightHand
									{
										OFFSET -26.026505 0.000000 0.000000
										CHANNELS 3 Xrotation Yrotation Zrotation
										JOINT RightHandThumb1
										{
											OFFSET -12.240601 -7.148026 9.207092
											CHANNELS 3 Xrotation Yrotation Zrotation
											JOINT RightHandThumb2
											{
												OFFSET -4.138618 -2.389435 2.389433
												CHANNELS 3 Xrotation Yrotation Zrotation
												JOINT RightHandThumb3
												{
													OFFSET -2.726974 -1.574417 1.574421
													CHANNELS 3 Xrotation Yrotation Zrotation
													JOINT RightHandThumb4
													{
														OFFSET -3.941010 -2.275345 2.275343
														CHANNELS 3 Xrotation Yrotation Zrotation
														End Site
														{
															OFFSET 0.000000 0.000000 0.000000
														}
													}
												}
											}
										}
										JOINT RightHandIndex1
										{
											OFFSET -24.424698 -1.985657 5.953444
											CHANNELS 3 Xrotation Yrotation Zrotation
											JOINT RightHandIndex2
											{
												OFFSET -6.426697 0.000000 0.000000
												CHANNELS 3 Xrotation Yrotation Zrotation
												JOINT RightHandIndex3
												{
													OFFSET -5.337898 0.000000 0.000000
													CHANNELS 3 Xrotation Yrotation Zrotation
													JOINT RightHandIndex4
													{
														OFFSET -4.409401 0.000000 0.000000
														CHANNELS 3 Xrotation Yrotation Zrotation
														End Site
														{
															OFFSET 0.000000 0.000000 0.000000
														}
													}
												}
											}
										}
										JOINT RightHandMiddle1
										{
											OFFSET -23.810097 0.000000 0.000000
											CHANNELS 3 Xrotation Yrotation Zrotation
											JOINT RightHandMiddle2
											{
												OFFSET -7.176498 0.000000 0.000000
												CHANNELS 3 Xrotation Yrotation Zrotation
												JOINT RightHandMiddle3
												{
													OFFSET -6.774902 0.000000 0.000000
													CHANNELS 3 Xrotation Yrotation Zrotation
													JOINT RightHandMiddle4
													{
														OFFSET -5.403328 0.000000 0.000000
														CHANNELS 3 Xrotation Yrotation Zrotation
														End Site
														{
															OFFSET 0.000000 0.000000 0.000000
														}
													}
												}
											}
										}
										JOINT RightHandRing1
										{
											OFFSET -22.908302 -0.839325 -6.020576
											CHANNELS 3 Xrotation Yrotation Zrotation
											JOINT RightHandRing2
											{
												OFFSET -6.337502 0.000000 0.000000
												CHANNELS 3 Xrotation Yrotation Zrotation
												JOINT RightHandRing3
												{
													OFFSET -5.779297 0.000000 0.000000
													CHANNELS 3 Xrotation Yrotation Zrotation
													JOINT RightHandRing4
													{
														OFFSET -4.965698 0.000000 0.000000
														CHANNELS 3 Xrotation Yrotation Zrotation
														End Site
														{
															OFFSET 0.000000 0.000000 0.000000
														}
													}
												}
											}
										}
										JOINT RightHandPinky1
										{
											OFFSET -20.037003 -1.530334 -10.950259
											CHANNELS 3 Xrotation Yrotation Zrotation
											JOINT RightHandPinky2
											{
												OFFSET -5.254700 0.000000 0.000000
												CHANNELS 3 Xrotation Yrotation Zrotation
												JOINT RightHandPinky3
												{
													OFFSET -4.810204 0.000000 0.000000
													CHANNELS 3 Xrotation Yrotation Zrotation
													JOINT RightHandPinky4
													{
														OFFSET -3.647202 0.000000 0.000000
														CHANNELS 3 Xrotation Yrotation Zrotation
														End Site
														{
															OFFSET 0.000000 0.000000 0.000000
														}
													}
												}
											}
										}
									}
								}
							}
						}
					}
				}
			}
		}
	}
	JOINT LeftUpLeg
	{
		OFFSET 15.427100 -6.655098 0.678600
		CHANNELS 3 Xrotation Yrotation Zrotation
		JOINT LeftLeg
		{
			OFFSET 4.081073 -39.591068 13.024000
			CHANNELS 3 Xrotation Yrotation Zrotation
			JOINT LeftFoot
			{
				OFFSET -4.081074 -37.707932 -15.979700
				CHANNELS 3 Xrotation Yrotation Zrotation
				JOINT LeftToeBase
				{
					OFFSET 5.346399 -15.068900 20.645000
					CHANNELS 3 Xrotation Yrotation Zrotation
					JOINT LeftToe_End
					{
						OFFSET 2.754700 0.931300 11.300900
						CHANNELS 3 Xrotation Yrotation Zrotation
						End Site
						{
							OFFSET 0.000000 0.000000 0.000000
						}
					}
				}
			}
		}
	}
	JOINT RightUpLeg
	{
		OFFSET -15.569500 -6.655098 0.678600
		CHANNELS 3 Xrotation Yrotation Zrotation
		JOINT RightLeg
		{
			OFFSET -4.081825 -39.591045 13.023800
			CHANNELS 3 Xrotation Yrotation Zrotation
			JOINT RightFoot
			{
				OFFSET 4.081824 -37.707954 -15.979600
				CHANNELS 3 Xrotation Yrotation Zrotation
				JOINT RightToeBase
				{
					OFFSET -5.346400 -15.068900 20.645000
					CHANNELS 3 Xrotation Yrotation Zrotation
					JOINT RightToe_End
					{
						OFFSET -2.754700 0.931300 11.300900
						CHANNELS 3 Xrotation Yrotation Zrotation
						End Site
						{
							OFFSET 0.000000 0.000000 0.000000
						}
					}
				}
			}
		}
	}
}
MOTION
Frames: 5
Frame Time: 0.016667
-0.746386 49.891922 8.183335 38.759677 -53.662706 31.308832 8.229801 -2.083995 -2.994554 3.592001 -3.361504 -2.519238 0.000000 0.000000 0.000000 3.576395 -3.306021 -2.583296 -4.843159 17.213127 -6.645901 -39.838718 36.524382 9.074947 -0.000000 0.000000 0.000000 5.547271 -8.009821 -6.640981 0.000000 0.000000 0.000000 -64.034267 1.869228 -22.502832 21.515663 -29.366825 16.956505 -2.616368 -8.068150 2.194877 40.109924 -15.297199 -0.360495 5.639819 28.097920 11.338841 1.088580 40.896304 22.734017 0.000002 -0.000000 0.000004 6.880105 2.821174 -61.138587 8.247998 7.640052 -89.897891 2.146101 8.173449 -41.827730 0.000001 -0.000001 0.000001 -2.344776 4.689019 -62.667887 8.755252 9.896965 -87.054688 1.995390 4.929287 -37.483429 -0.000002 0.000001 0.000003 -9.042458 10.045664 -60.766185 8.524180 9.509003 -66.902557 6.576554 9.896757 -70.385113 0.000001 0.000002 0.000001 -17.946908 14.754971 -51.485853 8.862300 8.673541 -84.822405 4.529479 8.854132 -59.170632 -0.000002 -0.000001 0.000001 5.583205 9.006416 15.903914 0.000000 0.000000 0.000000 -10.769843 1.892036 48.290841 -18.711339 38.477232 8.552186 6.179186 2.978082 -16.977719 -6.830669 -6.304603 5.093490 1.899705 -22.662916 -8.729807 -1.009201 6.019747 3.060242 0.000001 0.000002 0.000000 -0.976049 0.915620 -2.034115 0.028893 -0.078697 8.598517 -0.002797 -2.007113 -2.090636 0.000003 0.000003 -0.000006 1.418804 -6.781347 2.948459 1.033165 -4.271118 20.381551 0.107785 1.709306 -0.583021 -0.000002 -0.000001 0.000001 -5.862039 -13.951755 7.701481 1.592898 -4.798653 20.257214 1.025484 -4.086459 17.156402 0.000001 0.000001 -0.000000 -5.934307 -14.361596 26.354234 2.930745 -2.669599 12.240928 5.894384 -5.359964 25.324490 -0.000001 0.000001 -0.000001 -78.905351 -14.005634 33.067876 90.138703 -17.358453 -1.605800 -28.766479 3.603575 -17.179698 -1.836412 -0.000612 -0.000027 0.000000 0.000001 0.000000 -77.500312 3.927745 -40.605266 91.053457 15.035405 5.314715 -29.493044 -4.714159 13.663556 0.710717 0.013963 -0.061731 0.000000 -0.000000 -0.000000 
-0.683922 48.088188 7.979362 39.354560 -53.493444 31.703928 7.942957 -2.021997 -2.943914 3.758340 -3.279234 -2.496428 0.000000 0.000000 0.000000 3.743200 -3.226204 -2.558060 -4.149930 17.553315 -7.160890 -39.823059 36.047187 8.584221 -0.000000 -0.000000 -0.000000 5.745030 -8.108521 -6.895809 0.000000 0.000000 0.000000 -64.657036 0.940663 -22.490085 22.078537 -28.805701 16.993214 -2.188450 -8.346539 1.944081 40.109931 -15.297194 -0.360496 5.639817 28.097921 11.338843 1.088581 40.896301 22.734017 0.000000 0.000002 0.000005 6.879322 2.813755 -61.137870 8.247997 7.640055 -89.897884 2.146103 8.173447 -41.827730 -0.000000 -0.000000 0.000002 -2.346739 4.689021 -62.672791 8.755137 9.897016 -87.054470 1.995388 4.929286 -37.483429 0.000000 -0.000000 0.000001 -9.042456 10.045666 -60.766185 8.524206 9.509105 -66.906231 6.576555 9.896757 -70.385113 0.000001 -0.000000 -0.000001 -17.946908 14.754973 -51.485853 8.862088 8.673824 -84.826660 4.529313 8.854207 -59.177749 -0.000002 -0.000000 0.000001 5.819245 9.101612 16.094137 0.000000 0.000000 0.000000 -10.347740 2.384188 47.454443 -19.056443 39.289601 8.936999 5.144272 3.543872 -17.909690 -7.273776 -5.961035 4.974734 1.807469 -22.244864 -8.652304 -1.201057 6.515376 3.220162 0.000001 -0.000001 0.000000 -0.860001 0.831740 -2.769301 0.027984 -0.078736 7.696500 -0.008815 -2.006678 -2.292486 -0.000002 0.000000 -0.000000 1.401312 -6.841180 1.747784 0.975755 -4.290827 19.317657 0.118817 1.706411 -0.996381 -0.000003 0.000001 0.000001 -5.234674 -14.009317 5.961757 1.421480 -4.592390 19.068153 0.993364 -4.093301 16.411727 -0.000001 -0.000000 -0.000000 -6.123067 -14.120947 22.999697 2.904556 -2.693789 11.162816 5.805125 -5.475623 24.185970 0.000000 0.000000 0.000000 -80.870895 -16.014538 33.820723 92.050637 -18.283474 -1.830219 -28.533382 3.731623 -17.815637 -1.836412 -0.000612 -0.000027 -0.000000 -0.000001 0.000000 -79.706457 5.338600 -41.445205 93.231549 16.263601 5.584304 -29.267931 -4.732641 13.377267 0.458990 0.014321 -0.062029 -0.000000 0.000000 -0.000000 
-0.656115 46.346077 7.792292 39.887810 -53.382839 32.105704 7.647327 -1.956410 -2.904638 3.920441 -3.180464 -2.492628 0.000000 0.000000 0.000000 3.905912 -3.129790 -2.551260 -3.463313 17.929204 -7.697892 -39.698135 35.578602 8.116828 -0.000000 -0.000000 -0.000000 5.951874 -8.061985 -6.968056 0.000000 0.000000 0.000000 -65.208554 0.226345 -22.718874 22.758013 -28.220327 17.107334 -1.837110 -8.526896 1.949931 40.109931 -15.297196 -0.360496 5.639812 28.097920 11.338843 1.088583 40.896304 22.734022 0.000004 -0.000000 -0.000002 6.878514 2.806586 -61.137180 8.247996 7.640055 -89.897891 2.146103 8.173448 -41.827734 -0.000001 -0.000000 0.000001 -2.348136 4.689096 -62.677648 8.755064 9.896959 -87.054320 1.995391 4.929286 -37.483429 -0.000002 -0.000001 0.000005 -9.042455 10.045666 -60.766185 8.524235 9.509189 -66.909885 6.576555 9.896756 -70.385113 0.000002 -0.000002 -0.000001 -17.946911 14.754973 -51.485853 8.861909 8.674127 -84.830799 4.529172 8.854274 -59.184723 -0.000002 -0.000000 0.000001 6.023424 9.139921 16.277676 0.000000 0.000000 0.000000 -9.808072 2.869009 46.606359 -19.217627 39.891406 9.114113 4.158442 3.984971 -18.528410 -7.704056 -5.623328 4.866716 1.718638 -21.838323 -8.576003 -1.382530 6.990662 3.375552 -0.000001 -0.000002 -0.000002 -0.751787 0.746878 -3.402904 0.027165 -0.078813 6.886459 -0.014219 -2.006402 -2.473965 0.000004 0.000003 -0.000002 1.379472 -6.897003 0.604313 0.922502 -4.308983 18.305593 0.128996 1.703404 -1.392417 -0.000000 -0.000002 -0.000001 -4.598597 -14.115965 4.200487 1.257794 -4.370510 17.870681 0.962686 -4.099232 15.657753 -0.000002 -0.000000 0.000000 -6.286760 -13.898199 19.326210 2.878216 -2.716637 9.974149 5.708024 -5.593312 22.905507 -0.000001 -0.000001 0.000000 -82.629935 -17.991572 34.618308 93.799767 -19.256784 -2.074947 -28.255135 3.865783 -18.490492 -1.836412 -0.000612 -0.000027 -0.000000 0.000002 0.000000 -81.953439 6.978197 -42.244980 95.295250 17.554274 5.834976 -28.500566 -4.798543 13.266897 0.115795 0.014816 -0.062313 -0.000000 0.000000 -0.000000 
-0.650385 44.661469 7.637894 40.408171 -53.293179 32.509037 7.347637 -1.892549 -2.868527 4.076461 -3.077116 -2.496178 0.000000 0.000000 0.000000 4.062607 -3.028785 -2.551575 -2.778664 18.321578 -8.229669 -39.519314 35.119255 7.656166 0.000000 0.000000 -0.000000 6.122398 -8.035478 -6.996226 0.000000 0.000000 0.000000 -65.715845 -0.382989 -22.932782 23.412085 -27.614421 17.207451 -1.507600 -8.661004 1.990327 40.109924 -15.297197 -0.360499 5.639819 28.097916 11.338844 1.088580 40.896304 22.734018 -0.000002 0.000001 0.000000 6.877770 2.799582 -61.136470 8.247999 7.640054 -89.897891 2.146104 8.173448 -41.827730 -0.000001 0.000001 0.000001 -2.348850 4.689101 -62.682367 8.755011 9.896962 -87.054046 1.995388 4.929289 -37.483436 -0.000001 0.000000 0.000004 -9.042455 10.045666 -60.766185 8.524221 9.509263 -66.913717 6.576557 9.896756 -70.385113 -0.000001 -0.000000 0.000001 -17.946908 14.754973 -51.485850 8.861669 8.674428 -84.834938 4.529191 8.854415 -59.191594 0.000002 0.000000 -0.000002 6.224896 9.159324 16.434210 0.000000 0.000000 0.000000 -9.202600 3.322512 45.736760 -19.298971 40.213890 9.212687 3.214234 4.447910 -18.922691 -8.110749 -5.297897 4.771016 1.635691 -21.450127 -8.501638 -1.547857 7.438884 3.524321 -0.000002 0.000001 -0.000002 -0.653793 0.663572 -3.905964 0.026723 -0.078773 6.195268 -0.018457 -2.003899 -2.622998 -0.000003 0.000001 0.000001 1.354099 -6.946209 -0.446397 0.875439 -4.325239 17.387392 0.138225 1.700175 -1.755971 0.000002 0.000000 0.000002 -3.971868 -14.267985 2.470761 1.106198 -4.136323 16.709334 0.934637 -4.104601 14.921752 0.000000 -0.000001 -0.000000 -6.424706 -13.717934 15.482277 2.853917 -2.736937 8.736586 5.608559 -5.711005 21.551438 0.000003 0.000000 -0.000000 -84.283319 -19.969069 35.436753 95.424593 -20.261838 -2.321335 -27.921625 3.990579 -19.190409 -1.836413 -0.000613 -0.000027 0.000000 -0.000000 0.000000 -84.167998 8.821565 -42.934187 97.294276 18.699323 6.084098 -27.504538 -4.848053 13.144618 -0.302631 0.015274 -0.062554 -0.000000 -0.000000 0.000000 
-0.674057 43.056587 7.502522 40.943719 -53.234098 32.931726 7.032968 -1.834639 -2.839830 4.215038 -2.970469 -2.509426 0.000000 0.000000 0.000000 4.201919 -2.924073 -2.561445 -2.114966 18.744300 -8.721079 -39.204234 34.691415 7.182723 -0.000000 0.000000 -0.000000 6.284078 -7.922277 -6.979367 0.000000 0.000000 0.000000 -66.176924 -0.958013 -23.215150 24.010623 -26.960179 17.250415 -1.197637 -8.759663 1.973354 40.109927 -15.297199 -0.360499 5.639814 28.097921 11.338842 1.088581 40.896301 22.734022 0.000001 -0.000000 0.000000 6.876979 2.792888 -61.135807 8.247996 7.640054 -89.897891 2.146104 8.173447 -41.827730 -0.000001 -0.000001 0.000002 -2.349198 4.689152 -62.686739 8.754917 9.896989 -87.053889 1.995388 4.929287 -37.483429 -0.000000 0.000001 0.000002 -9.042453 10.045663 -60.766185 8.524280 9.509325 -66.916258 6.576556 9.896756 -70.385113 0.000001 -0.000002 0.000002 -17.946904 14.754973 -51.485853 8.861484 8.674707 -84.838791 4.529002 8.854468 -59.197844 0.000002 -0.000000 0.000001 6.382118 9.235164 16.656499 0.000000 0.000000 0.000000 -8.533650 3.718803 44.763673 -19.327572 40.249574 9.261551 2.362877 5.026330 -18.915446 -8.504032 -4.977532 4.678283 1.560380 -21.072706 -8.423829 -1.686057 7.845896 3.661958 -0.000001 -0.000002 -0.000001 -0.566765 0.582055 -4.244574 0.026752 -0.078717 5.650395 -0.021600 -2.000836 -2.745208 -0.000001 0.000000 0.000001 1.326149 -6.986285 -1.368900 0.836220 -4.339533 16.601670 0.146100 1.697344 -2.076238 0.000002 -0.000002 -0.000001 -3.369779 -14.455952 0.824139 0.969705 -3.893692 15.624841 0.910302 -4.109076 14.228456 0.000001 -0.000000 0.000001 -6.539070 -13.597028 11.609360 2.833124 -2.753657 7.507572 5.510830 -5.824171 20.187780 0.000004 -0.000001 -0.000001 -85.787511 -21.940227 36.307657 96.893146 -21.296871 -2.570940 -27.543744 4.118350 -19.925791 -1.836412 -0.000611 -0.000027 0.000000 0.000000 0.000000 -86.342539 10.739737 -43.461300 99.189974 19.689494 6.278194 -26.394180 -4.900319 13.078135 -0.788806 0.015995 -0.062728 0.000000 0.000000 0.000000 
